  0
SECTION
  2
BLOCKS
  0
ENDSEC
  0
SECTION
  2
ENTITIES
  0
LINE
  8
0
 10
31.5621
 20
-49.9469
 11
31.927
 21
-49.8532
  0
LINE
  8
0
 10
31.927
 20
-49.8532
 11
32.2773
 21
-49.7145
  0
LINE
  8
0
 10
32.2773
 20
-49.7145
 11
32.6075
 21
-49.533
  0
LINE
  8
0
 10
32.6075
 20
-49.533
 11
32.9123
 21
-49.3115
  0
LINE
  8
0
 10
32.9123
 20
-49.3115
 11
33.1869
 21
-49.0536
  0
LINE
  8
0
 10
33.1869
 20
-49.0536
 11
33.427
 21
-48.7634
  0
LINE
  8
0
 10
33.427
 20
-48.7634
 11
33.6289
 21
-48.4453
  0
LINE
  8
0
 10
33.6289
 20
-48.4453
 11
33.7893
 21
-48.1044
  0
LINE
  8
0
 10
33.7893
 20
-48.1044
 11
33.9057
 21
-47.7461
  0
LINE
  8
0
 10
33.9057
 20
-47.7461
 11
33.9763
 21
-47.376
  0
LINE
  8
0
 10
33.9763
 20
-47.376
 11
34
 21
-47
  0
LINE
  8
0
 10
34
 20
-47
 11
34
 21
47
  0
LINE
  8
0
 10
34
 20
47
 11
33.9763
 21
47.376
  0
LINE
  8
0
 10
33.9763
 20
47.376
 11
33.9057
 21
47.7461
  0
LINE
  8
0
 10
33.9057
 20
47.7461
 11
33.7893
 21
48.1044
  0
LINE
  8
0
 10
33.7893
 20
48.1044
 11
33.6289
 21
48.4453
  0
LINE
  8
0
 10
33.6289
 20
48.4453
 11
33.427
 21
48.7634
  0
LINE
  8
0
 10
33.427
 20
48.7634
 11
33.1869
 21
49.0536
  0
LINE
  8
0
 10
33.1869
 20
49.0536
 11
32.9123
 21
49.3115
  0
LINE
  8
0
 10
32.9123
 20
49.3115
 11
32.6075
 21
49.533
  0
LINE
  8
0
 10
32.6075
 20
49.533
 11
32.2773
 21
49.7145
  0
LINE
  8
0
 10
32.2773
 20
49.7145
 11
31.927
 21
49.8532
  0
LINE
  8
0
 10
31.927
 20
49.8532
 11
31.5621
 21
49.9469
  0
LINE
  8
0
 10
31.5621
 20
49.9469
 11
31.1884
 21
49.9941
  0
LINE
  8
0
 10
31.1884
 20
49.9941
 11
-31.1884
 21
49.9941
  0
LINE
  8
0
 10
-31.1884
 20
49.9941
 11
-31.5621
 21
49.9469
  0
LINE
  8
0
 10
-31.5621
 20
49.9469
 11
-31.927
 21
49.8532
  0
LINE
  8
0
 10
-31.927
 20
49.8532
 11
-32.2773
 21
49.7145
  0
LINE
  8
0
 10
-32.2773
 20
49.7145
 11
-32.6075
 21
49.533
  0
LINE
  8
0
 10
-32.6075
 20
49.533
 11
-32.9123
 21
49.3115
  0
LINE
  8
0
 10
-32.9123
 20
49.3115
 11
-33.1869
 21
49.0536
  0
LINE
  8
0
 10
-33.1869
 20
49.0536
 11
-33.427
 21
48.7634
  0
LINE
  8
0
 10
-33.427
 20
48.7634
 11
-33.6289
 21
48.4453
  0
LINE
  8
0
 10
-33.6289
 20
48.4453
 11
-33.7893
 21
48.1044
  0
LINE
  8
0
 10
-33.7893
 20
48.1044
 11
-33.9057
 21
47.7461
  0
LINE
  8
0
 10
-33.9057
 20
47.7461
 11
-33.9763
 21
47.376
  0
LINE
  8
0
 10
-33.9763
 20
47.376
 11
-34
 21
47
  0
LINE
  8
0
 10
-34
 20
47
 11
-34
 21
-47
  0
LINE
  8
0
 10
-34
 20
-47
 11
-33.9763
 21
-47.376
  0
LINE
  8
0
 10
-33.9763
 20
-47.376
 11
-33.9057
 21
-47.7461
  0
LINE
  8
0
 10
-33.9057
 20
-47.7461
 11
-33.7893
 21
-48.1044
  0
LINE
  8
0
 10
-33.7893
 20
-48.1044
 11
-33.6289
 21
-48.4453
  0
LINE
  8
0
 10
-33.6289
 20
-48.4453
 11
-33.427
 21
-48.7634
  0
LINE
  8
0
 10
-33.427
 20
-48.7634
 11
-33.1869
 21
-49.0536
  0
LINE
  8
0
 10
-33.1869
 20
-49.0536
 11
-32.9123
 21
-49.3115
  0
LINE
  8
0
 10
-32.9123
 20
-49.3115
 11
-32.6075
 21
-49.533
  0
LINE
  8
0
 10
-32.6075
 20
-49.533
 11
-32.2773
 21
-49.7145
  0
LINE
  8
0
 10
-32.2773
 20
-49.7145
 11
-31.927
 21
-49.8532
  0
LINE
  8
0
 10
-31.927
 20
-49.8532
 11
-31.5621
 21
-49.9469
  0
LINE
  8
0
 10
-31.5621
 20
-49.9469
 11
-31.1884
 21
-49.9941
  0
LINE
  8
0
 10
-31.1884
 20
-49.9941
 11
-22.5
 21
-49.9941
  0
LINE
  8
0
 10
-22.5
 20
-49.9941
 11
-22.5
 21
-28
  0
LINE
  8
0
 10
-22.5
 20
-28
 11
-22.4763
 21
-27.624
  0
LINE
  8
0
 10
-22.4763
 20
-27.624
 11
-22.4057
 21
-27.2539
  0
LINE
  8
0
 10
-22.4057
 20
-27.2539
 11
-22.2893
 21
-26.8956
  0
LINE
  8
0
 10
-22.2893
 20
-26.8956
 11
-22.1289
 21
-26.5547
  0
LINE
  8
0
 10
-22.1289
 20
-26.5547
 11
-21.927
 21
-26.2366
  0
LINE
  8
0
 10
-21.927
 20
-26.2366
 11
-21.6869
 21
-25.9464
  0
LINE
  8
0
 10
-21.6869
 20
-25.9464
 11
-21.4123
 21
-25.6884
  0
LINE
  8
0
 10
-21.4123
 20
-25.6884
 11
-21.1075
 21
-25.467
  0
LINE
  8
0
 10
-21.1075
 20
-25.467
 11
-20.7773
 21
-25.2855
  0
LINE
  8
0
 10
-20.7773
 20
-25.2855
 11
-20.427
 21
-25.1468
  0
LINE
  8
0
 10
-20.427
 20
-25.1468
 11
-20.0621
 21
-25.0531
  0
LINE
  8
0
 10
-20.0621
 20
-25.0531
 11
-19.6884
 21
-25.0059
  0
LINE
  8
0
 10
-19.6884
 20
-25.0059
 11
19.6884
 21
-25.0059
  0
LINE
  8
0
 10
19.6884
 20
-25.0059
 11
20.0621
 21
-25.0531
  0
LINE
  8
0
 10
20.0621
 20
-25.0531
 11
20.427
 21
-25.1468
  0
LINE
  8
0
 10
20.427
 20
-25.1468
 11
20.7773
 21
-25.2855
  0
LINE
  8
0
 10
20.7773
 20
-25.2855
 11
21.1075
 21
-25.467
  0
LINE
  8
0
 10
21.1075
 20
-25.467
 11
21.4123
 21
-25.6884
  0
LINE
  8
0
 10
21.4123
 20
-25.6884
 11
21.6869
 21
-25.9464
  0
LINE
  8
0
 10
21.6869
 20
-25.9464
 11
21.927
 21
-26.2366
  0
LINE
  8
0
 10
21.927
 20
-26.2366
 11
22.1289
 21
-26.5547
  0
LINE
  8
0
 10
22.1289
 20
-26.5547
 11
22.2893
 21
-26.8956
  0
LINE
  8
0
 10
22.2893
 20
-26.8956
 11
22.4057
 21
-27.2539
  0
LINE
  8
0
 10
22.4057
 20
-27.2539
 11
22.4763
 21
-27.624
  0
LINE
  8
0
 10
22.4763
 20
-27.624
 11
22.5
 21
-28
  0
LINE
  8
0
 10
22.5
 20
-28
 11
22.5
 21
-49.9941
  0
LINE
  8
0
 10
22.5
 20
-49.9941
 11
31.1884
 21
-49.9941
  0
LINE
  8
0
 10
31.1884
 20
-49.9941
 11
31.5621
 21
-49.9469
  0
LINE
  8
0
 10
28.8744
 20
43.0039
 11
28.6252
 21
43.0354
  0
LINE
  8
0
 10
28.6252
 20
43.0354
 11
28.382
 21
43.0979
  0
LINE
  8
0
 10
28.382
 20
43.0979
 11
28.1484
 21
43.1903
  0
LINE
  8
0
 10
28.1484
 20
43.1903
 11
27.9283
 21
43.3113
  0
LINE
  8
0
 10
27.9283
 20
43.3113
 11
27.7251
 21
43.459
  0
LINE
  8
0
 10
27.7251
 20
43.459
 11
27.5421
 21
43.6309
  0
LINE
  8
0
 10
27.5421
 20
43.6309
 11
27.382
 21
43.8244
  0
LINE
  8
0
 10
27.382
 20
43.8244
 11
27.2474
 21
44.0365
  0
LINE
  8
0
 10
27.2474
 20
44.0365
 11
27.1404
 21
44.2637
  0
LINE
  8
0
 10
27.1404
 20
44.2637
 11
27.0628
 21
44.5026
  0
LINE
  8
0
 10
27.0628
 20
44.5026
 11
27.0158
 21
44.7493
  0
LINE
  8
0
 10
27.0158
 20
44.7493
 11
27
 21
45
  0
LINE
  8
0
 10
27
 20
45
 11
27.0158
 21
45.2507
  0
LINE
  8
0
 10
27.0158
 20
45.2507
 11
27.0628
 21
45.4974
  0
LINE
  8
0
 10
27.0628
 20
45.4974
 11
27.1404
 21
45.7362
  0
LINE
  8
0
 10
27.1404
 20
45.7362
 11
27.2474
 21
45.9635
  0
LINE
  8
0
 10
27.2474
 20
45.9635
 11
27.382
 21
46.1756
  0
LINE
  8
0
 10
27.382
 20
46.1756
 11
27.5421
 21
46.3691
  0
LINE
  8
0
 10
27.5421
 20
46.3691
 11
27.7251
 21
46.541
  0
LINE
  8
0
 10
27.7251
 20
46.541
 11
27.9283
 21
46.6886
  0
LINE
  8
0
 10
27.9283
 20
46.6886
 11
28.1484
 21
46.8096
  0
LINE
  8
0
 10
28.1484
 20
46.8096
 11
28.382
 21
46.9021
  0
LINE
  8
0
 10
28.382
 20
46.9021
 11
28.6252
 21
46.9646
  0
LINE
  8
0
 10
28.6252
 20
46.9646
 11
28.8744
 21
46.996
  0
LINE
  8
0
 10
28.8744
 20
46.996
 11
29.1256
 21
46.996
  0
LINE
  8
0
 10
29.1256
 20
46.996
 11
29.3748
 21
46.9646
  0
LINE
  8
0
 10
29.3748
 20
46.9646
 11
29.618
 21
46.9021
  0
LINE
  8
0
 10
29.618
 20
46.9021
 11
29.8515
 21
46.8096
  0
LINE
  8
0
 10
29.8515
 20
46.8096
 11
30.0716
 21
46.6886
  0
LINE
  8
0
 10
30.0716
 20
46.6886
 11
30.2748
 21
46.541
  0
LINE
  8
0
 10
30.2748
 20
46.541
 11
30.4579
 21
46.3691
  0
LINE
  8
0
 10
30.4579
 20
46.3691
 11
30.618
 21
46.1756
  0
LINE
  8
0
 10
30.618
 20
46.1756
 11
30.7526
 21
45.9635
  0
LINE
  8
0
 10
30.7526
 20
45.9635
 11
30.8595
 21
45.7362
  0
LINE
  8
0
 10
30.8595
 20
45.7362
 11
30.9372
 21
45.4974
  0
LINE
  8
0
 10
30.9372
 20
45.4974
 11
30.9842
 21
45.2507
  0
LINE
  8
0
 10
30.9842
 20
45.2507
 11
31
 21
45
  0
LINE
  8
0
 10
31
 20
45
 11
30.9842
 21
44.7493
  0
LINE
  8
0
 10
30.9842
 20
44.7493
 11
30.9372
 21
44.5026
  0
LINE
  8
0
 10
30.9372
 20
44.5026
 11
30.8595
 21
44.2637
  0
LINE
  8
0
 10
30.8595
 20
44.2637
 11
30.7526
 21
44.0365
  0
LINE
  8
0
 10
30.7526
 20
44.0365
 11
30.618
 21
43.8244
  0
LINE
  8
0
 10
30.618
 20
43.8244
 11
30.4579
 21
43.6309
  0
LINE
  8
0
 10
30.4579
 20
43.6309
 11
30.2748
 21
43.459
  0
LINE
  8
0
 10
30.2748
 20
43.459
 11
30.0716
 21
43.3113
  0
LINE
  8
0
 10
30.0716
 20
43.3113
 11
29.8515
 21
43.1903
  0
LINE
  8
0
 10
29.8515
 20
43.1903
 11
29.618
 21
43.0979
  0
LINE
  8
0
 10
29.618
 20
43.0979
 11
29.3748
 21
43.0354
  0
LINE
  8
0
 10
29.3748
 20
43.0354
 11
29.1256
 21
43.0039
  0
LINE
  8
0
 10
29.1256
 20
43.0039
 11
28.8744
 21
43.0039
  0
LINE
  8
0
 10
-29.1256
 20
43.0039
 11
-29.3748
 21
43.0354
  0
LINE
  8
0
 10
-29.3748
 20
43.0354
 11
-29.618
 21
43.0979
  0
LINE
  8
0
 10
-29.618
 20
43.0979
 11
-29.8515
 21
43.1903
  0
LINE
  8
0
 10
-29.8515
 20
43.1903
 11
-30.0716
 21
43.3113
  0
LINE
  8
0
 10
-30.0716
 20
43.3113
 11
-30.2748
 21
43.459
  0
LINE
  8
0
 10
-30.2748
 20
43.459
 11
-30.4579
 21
43.6309
  0
LINE
  8
0
 10
-30.4579
 20
43.6309
 11
-30.618
 21
43.8244
  0
LINE
  8
0
 10
-30.618
 20
43.8244
 11
-30.7526
 21
44.0365
  0
LINE
  8
0
 10
-30.7526
 20
44.0365
 11
-30.8595
 21
44.2637
  0
LINE
  8
0
 10
-30.8595
 20
44.2637
 11
-30.9372
 21
44.5026
  0
LINE
  8
0
 10
-30.9372
 20
44.5026
 11
-30.9842
 21
44.7493
  0
LINE
  8
0
 10
-30.9842
 20
44.7493
 11
-31
 21
45
  0
LINE
  8
0
 10
-31
 20
45
 11
-30.9842
 21
45.2507
  0
LINE
  8
0
 10
-30.9842
 20
45.2507
 11
-30.9372
 21
45.4974
  0
LINE
  8
0
 10
-30.9372
 20
45.4974
 11
-30.8595
 21
45.7362
  0
LINE
  8
0
 10
-30.8595
 20
45.7362
 11
-30.7526
 21
45.9635
  0
LINE
  8
0
 10
-30.7526
 20
45.9635
 11
-30.618
 21
46.1756
  0
LINE
  8
0
 10
-30.618
 20
46.1756
 11
-30.4579
 21
46.3691
  0
LINE
  8
0
 10
-30.4579
 20
46.3691
 11
-30.2748
 21
46.541
  0
LINE
  8
0
 10
-30.2748
 20
46.541
 11
-30.0716
 21
46.6886
  0
LINE
  8
0
 10
-30.0716
 20
46.6886
 11
-29.8515
 21
46.8096
  0
LINE
  8
0
 10
-29.8515
 20
46.8096
 11
-29.618
 21
46.9021
  0
LINE
  8
0
 10
-29.618
 20
46.9021
 11
-29.3748
 21
46.9646
  0
LINE
  8
0
 10
-29.3748
 20
46.9646
 11
-29.1256
 21
46.996
  0
LINE
  8
0
 10
-29.1256
 20
46.996
 11
-28.8744
 21
46.996
  0
LINE
  8
0
 10
-28.8744
 20
46.996
 11
-28.6252
 21
46.9646
  0
LINE
  8
0
 10
-28.6252
 20
46.9646
 11
-28.382
 21
46.9021
  0
LINE
  8
0
 10
-28.382
 20
46.9021
 11
-28.1484
 21
46.8096
  0
LINE
  8
0
 10
-28.1484
 20
46.8096
 11
-27.9283
 21
46.6886
  0
LINE
  8
0
 10
-27.9283
 20
46.6886
 11
-27.7251
 21
46.541
  0
LINE
  8
0
 10
-27.7251
 20
46.541
 11
-27.5421
 21
46.3691
  0
LINE
  8
0
 10
-27.5421
 20
46.3691
 11
-27.382
 21
46.1756
  0
LINE
  8
0
 10
-27.382
 20
46.1756
 11
-27.2474
 21
45.9635
  0
LINE
  8
0
 10
-27.2474
 20
45.9635
 11
-27.1404
 21
45.7362
  0
LINE
  8
0
 10
-27.1404
 20
45.7362
 11
-27.0628
 21
45.4974
  0
LINE
  8
0
 10
-27.0628
 20
45.4974
 11
-27.0158
 21
45.2507
  0
LINE
  8
0
 10
-27.0158
 20
45.2507
 11
-27
 21
45
  0
LINE
  8
0
 10
-27
 20
45
 11
-27.0158
 21
44.7493
  0
LINE
  8
0
 10
-27.0158
 20
44.7493
 11
-27.0628
 21
44.5026
  0
LINE
  8
0
 10
-27.0628
 20
44.5026
 11
-27.1404
 21
44.2637
  0
LINE
  8
0
 10
-27.1404
 20
44.2637
 11
-27.2474
 21
44.0365
  0
LINE
  8
0
 10
-27.2474
 20
44.0365
 11
-27.382
 21
43.8244
  0
LINE
  8
0
 10
-27.382
 20
43.8244
 11
-27.5421
 21
43.6309
  0
LINE
  8
0
 10
-27.5421
 20
43.6309
 11
-27.7251
 21
43.459
  0
LINE
  8
0
 10
-27.7251
 20
43.459
 11
-27.9283
 21
43.3113
  0
LINE
  8
0
 10
-27.9283
 20
43.3113
 11
-28.1484
 21
43.1903
  0
LINE
  8
0
 10
-28.1484
 20
43.1903
 11
-28.382
 21
43.0979
  0
LINE
  8
0
 10
-28.382
 20
43.0979
 11
-28.6252
 21
43.0354
  0
LINE
  8
0
 10
-28.6252
 20
43.0354
 11
-28.8744
 21
43.0039
  0
LINE
  8
0
 10
-28.8744
 20
43.0039
 11
-29.1256
 21
43.0039
  0
LINE
  8
0
 10
-8.28799
 20
42.6118
 11
-8.47302
 21
42.6471
  0
LINE
  8
0
 10
-8.47302
 20
42.6471
 11
-8.65218
 21
42.7053
  0
LINE
  8
0
 10
-8.65218
 20
42.7053
 11
-8.82262
 21
42.7855
  0
LINE
  8
0
 10
-8.82262
 20
42.7855
 11
-8.98167
 21
42.8865
  0
LINE
  8
0
 10
-8.98167
 20
42.8865
 11
-9.12682
 21
43.0065
  0
LINE
  8
0
 10
-9.12682
 20
43.0065
 11
-9.25577
 21
43.1439
  0
LINE
  8
0
 10
-9.25577
 20
43.1439
 11
-9.36649
 21
43.2962
  0
LINE
  8
0
 10
-9.36649
 20
43.2962
 11
-9.45723
 21
43.4613
  0
LINE
  8
0
 10
-9.45723
 20
43.4613
 11
-9.52658
 21
43.6365
  0
LINE
  8
0
 10
-9.52658
 20
43.6365
 11
-9.57343
 21
43.8189
  0
LINE
  8
0
 10
-9.57343
 20
43.8189
 11
-9.59703
 21
44.0058
  0
LINE
  8
0
 10
-9.59703
 20
44.0058
 11
-9.59703
 21
44.1942
  0
LINE
  8
0
 10
-9.59703
 20
44.1942
 11
-9.57343
 21
44.3811
  0
LINE
  8
0
 10
-9.57343
 20
44.3811
 11
-9.52658
 21
44.5635
  0
LINE
  8
0
 10
-9.52658
 20
44.5635
 11
-9.45723
 21
44.7387
  0
LINE
  8
0
 10
-9.45723
 20
44.7387
 11
-9.36649
 21
44.9037
  0
LINE
  8
0
 10
-9.36649
 20
44.9037
 11
-9.25577
 21
45.0561
  0
LINE
  8
0
 10
-9.25577
 20
45.0561
 11
-9.12682
 21
45.1935
  0
LINE
  8
0
 10
-9.12682
 20
45.1935
 11
-8.98167
 21
45.3135
  0
LINE
  8
0
 10
-8.98167
 20
45.3135
 11
-8.82262
 21
45.4145
  0
LINE
  8
0
 10
-8.82262
 20
45.4145
 11
-8.65218
 21
45.4947
  0
LINE
  8
0
 10
-8.65218
 20
45.4947
 11
-8.47302
 21
45.5529
  0
LINE
  8
0
 10
-8.47302
 20
45.5529
 11
-8.28799
 21
45.5882
  0
LINE
  8
0
 10
-8.28799
 20
45.5882
 11
-8.09999
 21
45.6
  0
LINE
  8
0
 10
-8.09999
 20
45.6
 11
-7.91199
 21
45.5882
  0
LINE
  8
0
 10
-7.91199
 20
45.5882
 11
-7.72696
 21
45.5529
  0
LINE
  8
0
 10
-7.72696
 20
45.5529
 11
-7.54781
 21
45.4947
  0
LINE
  8
0
 10
-7.54781
 20
45.4947
 11
-7.37737
 21
45.4145
  0
LINE
  8
0
 10
-7.37737
 20
45.4145
 11
-7.21831
 21
45.3135
  0
LINE
  8
0
 10
-7.21831
 20
45.3135
 11
-7.07317
 21
45.1935
  0
LINE
  8
0
 10
-7.07317
 20
45.1935
 11
-6.94423
 21
45.0561
  0
LINE
  8
0
 10
-6.94423
 20
45.0561
 11
-6.8335
 21
44.9037
  0
LINE
  8
0
 10
-6.8335
 20
44.9037
 11
-6.74275
 21
44.7387
  0
LINE
  8
0
 10
-6.74275
 20
44.7387
 11
-6.6734
 21
44.5635
  0
LINE
  8
0
 10
-6.6734
 20
44.5635
 11
-6.62656
 21
44.3811
  0
LINE
  8
0
 10
-6.62656
 20
44.3811
 11
-6.60295
 21
44.1942
  0
LINE
  8
0
 10
-6.60295
 20
44.1942
 11
-6.60295
 21
44.0058
  0
LINE
  8
0
 10
-6.60295
 20
44.0058
 11
-6.62656
 21
43.8189
  0
LINE
  8
0
 10
-6.62656
 20
43.8189
 11
-6.6734
 21
43.6365
  0
LINE
  8
0
 10
-6.6734
 20
43.6365
 11
-6.74275
 21
43.4613
  0
LINE
  8
0
 10
-6.74275
 20
43.4613
 11
-6.8335
 21
43.2962
  0
LINE
  8
0
 10
-6.8335
 20
43.2962
 11
-6.94423
 21
43.1439
  0
LINE
  8
0
 10
-6.94423
 20
43.1439
 11
-7.07317
 21
43.0065
  0
LINE
  8
0
 10
-7.07317
 20
43.0065
 11
-7.21831
 21
42.8865
  0
LINE
  8
0
 10
-7.21831
 20
42.8865
 11
-7.37737
 21
42.7855
  0
LINE
  8
0
 10
-7.37737
 20
42.7855
 11
-7.54781
 21
42.7053
  0
LINE
  8
0
 10
-7.54781
 20
42.7053
 11
-7.72696
 21
42.6471
  0
LINE
  8
0
 10
-7.72696
 20
42.6471
 11
-7.91199
 21
42.6118
  0
LINE
  8
0
 10
-7.91199
 20
42.6118
 11
-8.09999
 21
42.6
  0
LINE
  8
0
 10
-8.09999
 20
42.6
 11
-8.28799
 21
42.6118
  0
LINE
  8
0
 10
19.612
 20
42.6118
 11
19.427
 21
42.6471
  0
LINE
  8
0
 10
19.427
 20
42.6471
 11
19.2478
 21
42.7053
  0
LINE
  8
0
 10
19.2478
 20
42.7053
 11
19.0774
 21
42.7855
  0
LINE
  8
0
 10
19.0774
 20
42.7855
 11
18.9183
 21
42.8865
  0
LINE
  8
0
 10
18.9183
 20
42.8865
 11
18.7732
 21
43.0065
  0
LINE
  8
0
 10
18.7732
 20
43.0065
 11
18.6442
 21
43.1439
  0
LINE
  8
0
 10
18.6442
 20
43.1439
 11
18.5335
 21
43.2962
  0
LINE
  8
0
 10
18.5335
 20
43.2962
 11
18.4427
 21
43.4613
  0
LINE
  8
0
 10
18.4427
 20
43.4613
 11
18.3734
 21
43.6365
  0
LINE
  8
0
 10
18.3734
 20
43.6365
 11
18.3266
 21
43.8189
  0
LINE
  8
0
 10
18.3266
 20
43.8189
 11
18.3029
 21
44.0058
  0
LINE
  8
0
 10
18.3029
 20
44.0058
 11
18.3029
 21
44.1942
  0
LINE
  8
0
 10
18.3029
 20
44.1942
 11
18.3266
 21
44.3811
  0
LINE
  8
0
 10
18.3266
 20
44.3811
 11
18.3734
 21
44.5635
  0
LINE
  8
0
 10
18.3734
 20
44.5635
 11
18.4427
 21
44.7387
  0
LINE
  8
0
 10
18.4427
 20
44.7387
 11
18.5335
 21
44.9037
  0
LINE
  8
0
 10
18.5335
 20
44.9037
 11
18.6442
 21
45.0561
  0
LINE
  8
0
 10
18.6442
 20
45.0561
 11
18.7732
 21
45.1935
  0
LINE
  8
0
 10
18.7732
 20
45.1935
 11
18.9183
 21
45.3135
  0
LINE
  8
0
 10
18.9183
 20
45.3135
 11
19.0774
 21
45.4145
  0
LINE
  8
0
 10
19.0774
 20
45.4145
 11
19.2478
 21
45.4947
  0
LINE
  8
0
 10
19.2478
 20
45.4947
 11
19.427
 21
45.5529
  0
LINE
  8
0
 10
19.427
 20
45.5529
 11
19.612
 21
45.5882
  0
LINE
  8
0
 10
19.612
 20
45.5882
 11
19.8
 21
45.6
  0
LINE
  8
0
 10
19.8
 20
45.6
 11
19.988
 21
45.5882
  0
LINE
  8
0
 10
19.988
 20
45.5882
 11
20.173
 21
45.5529
  0
LINE
  8
0
 10
20.173
 20
45.5529
 11
20.3522
 21
45.4947
  0
LINE
  8
0
 10
20.3522
 20
45.4947
 11
20.5226
 21
45.4145
  0
LINE
  8
0
 10
20.5226
 20
45.4145
 11
20.6817
 21
45.3135
  0
LINE
  8
0
 10
20.6817
 20
45.3135
 11
20.8268
 21
45.1935
  0
LINE
  8
0
 10
20.8268
 20
45.1935
 11
20.9558
 21
45.0561
  0
LINE
  8
0
 10
20.9558
 20
45.0561
 11
21.0665
 21
44.9037
  0
LINE
  8
0
 10
21.0665
 20
44.9037
 11
21.1572
 21
44.7387
  0
LINE
  8
0
 10
21.1572
 20
44.7387
 11
21.2266
 21
44.5635
  0
LINE
  8
0
 10
21.2266
 20
44.5635
 11
21.2734
 21
44.3811
  0
LINE
  8
0
 10
21.2734
 20
44.3811
 11
21.297
 21
44.1942
  0
LINE
  8
0
 10
21.297
 20
44.1942
 11
21.297
 21
44.0058
  0
LINE
  8
0
 10
21.297
 20
44.0058
 11
21.2734
 21
43.8189
  0
LINE
  8
0
 10
21.2734
 20
43.8189
 11
21.2266
 21
43.6365
  0
LINE
  8
0
 10
21.2266
 20
43.6365
 11
21.1572
 21
43.4613
  0
LINE
  8
0
 10
21.1572
 20
43.4613
 11
21.0665
 21
43.2962
  0
LINE
  8
0
 10
21.0665
 20
43.2962
 11
20.9558
 21
43.1439
  0
LINE
  8
0
 10
20.9558
 20
43.1439
 11
20.8268
 21
43.0065
  0
LINE
  8
0
 10
20.8268
 20
43.0065
 11
20.6817
 21
42.8865
  0
LINE
  8
0
 10
20.6817
 20
42.8865
 11
20.5226
 21
42.7855
  0
LINE
  8
0
 10
20.5226
 20
42.7855
 11
20.3522
 21
42.7053
  0
LINE
  8
0
 10
20.3522
 20
42.7053
 11
20.173
 21
42.6471
  0
LINE
  8
0
 10
20.173
 20
42.6471
 11
19.988
 21
42.6118
  0
LINE
  8
0
 10
19.988
 20
42.6118
 11
19.8
 21
42.6
  0
LINE
  8
0
 10
19.8
 20
42.6
 11
19.612
 21
42.6118
  0
LINE
  8
0
 10
-23.488
 20
-8.18819
 11
-23.673
 21
-8.15288
  0
LINE
  8
0
 10
-23.673
 20
-8.15288
 11
-23.8522
 21
-8.09467
  0
LINE
  8
0
 10
-23.8522
 20
-8.09467
 11
-24.0226
 21
-8.01447
  0
LINE
  8
0
 10
-24.0226
 20
-8.01447
 11
-24.1817
 21
-7.91353
  0
LINE
  8
0
 10
-24.1817
 20
-7.91353
 11
-24.3268
 21
-7.79346
  0
LINE
  8
0
 10
-24.3268
 20
-7.79346
 11
-24.4558
 21
-7.65614
  0
LINE
  8
0
 10
-24.4558
 20
-7.65614
 11
-24.5665
 21
-7.50375
  0
LINE
  8
0
 10
-24.5665
 20
-7.50375
 11
-24.6572
 21
-7.33868
  0
LINE
  8
0
 10
-24.6572
 20
-7.33868
 11
-24.7266
 21
-7.16353
  0
LINE
  8
0
 10
-24.7266
 20
-7.16353
 11
-24.7734
 21
-6.98108
  0
LINE
  8
0
 10
-24.7734
 20
-6.98108
 11
-24.797
 21
-6.79419
  0
LINE
  8
0
 10
-24.797
 20
-6.79419
 11
-24.797
 21
-6.60582
  0
LINE
  8
0
 10
-24.797
 20
-6.60582
 11
-24.7734
 21
-6.41893
  0
LINE
  8
0
 10
-24.7734
 20
-6.41893
 11
-24.7266
 21
-6.23648
  0
LINE
  8
0
 10
-24.7266
 20
-6.23648
 11
-24.6572
 21
-6.06134
  0
LINE
  8
0
 10
-24.6572
 20
-6.06134
 11
-24.5665
 21
-5.89627
  0
LINE
  8
0
 10
-24.5665
 20
-5.89627
 11
-24.4558
 21
-5.74387
  0
LINE
  8
0
 10
-24.4558
 20
-5.74387
 11
-24.3268
 21
-5.60655
  0
LINE
  8
0
 10
-24.3268
 20
-5.60655
 11
-24.1817
 21
-5.48648
  0
LINE
  8
0
 10
-24.1817
 20
-5.48648
 11
-24.0226
 21
-5.38554
  0
LINE
  8
0
 10
-24.0226
 20
-5.38554
 11
-23.8522
 21
-5.30534
  0
LINE
  8
0
 10
-23.8522
 20
-5.30534
 11
-23.673
 21
-5.24713
  0
LINE
  8
0
 10
-23.673
 20
-5.24713
 11
-23.488
 21
-5.21184
  0
LINE
  8
0
 10
-23.488
 20
-5.21184
 11
-23.3
 21
-5.20001
  0
LINE
  8
0
 10
-23.3
 20
-5.20001
 11
-23.112
 21
-5.21184
  0
LINE
  8
0
 10
-23.112
 20
-5.21184
 11
-22.927
 21
-5.24713
  0
LINE
  8
0
 10
-22.927
 20
-5.24713
 11
-22.7478
 21
-5.30534
  0
LINE
  8
0
 10
-22.7478
 20
-5.30534
 11
-22.5774
 21
-5.38554
  0
LINE
  8
0
 10
-22.5774
 20
-5.38554
 11
-22.4183
 21
-5.48648
  0
LINE
  8
0
 10
-22.4183
 20
-5.48648
 11
-22.2732
 21
-5.60655
  0
LINE
  8
0
 10
-22.2732
 20
-5.60655
 11
-22.1442
 21
-5.74387
  0
LINE
  8
0
 10
-22.1442
 20
-5.74387
 11
-22.0335
 21
-5.89627
  0
LINE
  8
0
 10
-22.0335
 20
-5.89627
 11
-21.9428
 21
-6.06134
  0
LINE
  8
0
 10
-21.9428
 20
-6.06134
 11
-21.8734
 21
-6.23648
  0
LINE
  8
0
 10
-21.8734
 20
-6.23648
 11
-21.8266
 21
-6.41893
  0
LINE
  8
0
 10
-21.8266
 20
-6.41893
 11
-21.803
 21
-6.60582
  0
LINE
  8
0
 10
-21.803
 20
-6.60582
 11
-21.803
 21
-6.79419
  0
LINE
  8
0
 10
-21.803
 20
-6.79419
 11
-21.8266
 21
-6.98108
  0
LINE
  8
0
 10
-21.8266
 20
-6.98108
 11
-21.8734
 21
-7.16353
  0
LINE
  8
0
 10
-21.8734
 20
-7.16353
 11
-21.9428
 21
-7.33868
  0
LINE
  8
0
 10
-21.9428
 20
-7.33868
 11
-22.0335
 21
-7.50375
  0
LINE
  8
0
 10
-22.0335
 20
-7.50375
 11
-22.1442
 21
-7.65614
  0
LINE
  8
0
 10
-22.1442
 20
-7.65614
 11
-22.2732
 21
-7.79346
  0
LINE
  8
0
 10
-22.2732
 20
-7.79346
 11
-22.4183
 21
-7.91353
  0
LINE
  8
0
 10
-22.4183
 20
-7.91353
 11
-22.5774
 21
-8.01447
  0
LINE
  8
0
 10
-22.5774
 20
-8.01447
 11
-22.7478
 21
-8.09467
  0
LINE
  8
0
 10
-22.7478
 20
-8.09467
 11
-22.927
 21
-8.15288
  0
LINE
  8
0
 10
-22.927
 20
-8.15288
 11
-23.112
 21
-8.18819
  0
LINE
  8
0
 10
-23.112
 20
-8.18819
 11
-23.3
 21
-8.20001
  0
LINE
  8
0
 10
-23.3
 20
-8.20001
 11
-23.488
 21
-8.18819
  0
LINE
  8
0
 10
24.612
 20
-9.48817
 11
24.427
 21
-9.45288
  0
LINE
  8
0
 10
24.427
 20
-9.45288
 11
24.2478
 21
-9.39467
  0
LINE
  8
0
 10
24.2478
 20
-9.39467
 11
24.0774
 21
-9.31447
  0
LINE
  8
0
 10
24.0774
 20
-9.31447
 11
23.9183
 21
-9.21353
  0
LINE
  8
0
 10
23.9183
 20
-9.21353
 11
23.7732
 21
-9.09346
  0
LINE
  8
0
 10
23.7732
 20
-9.09346
 11
23.6442
 21
-8.95615
  0
LINE
  8
0
 10
23.6442
 20
-8.95615
 11
23.5335
 21
-8.80374
  0
LINE
  8
0
 10
23.5335
 20
-8.80374
 11
23.4427
 21
-8.63867
  0
LINE
  8
0
 10
23.4427
 20
-8.63867
 11
23.3734
 21
-8.46353
  0
LINE
  8
0
 10
23.3734
 20
-8.46353
 11
23.3266
 21
-8.28108
  0
LINE
  8
0
 10
23.3266
 20
-8.28108
 11
23.3029
 21
-8.09419
  0
LINE
  8
0
 10
23.3029
 20
-8.09419
 11
23.3029
 21
-7.90582
  0
LINE
  8
0
 10
23.3029
 20
-7.90582
 11
23.3266
 21
-7.71893
  0
LINE
  8
0
 10
23.3266
 20
-7.71893
 11
23.3734
 21
-7.53648
  0
LINE
  8
0
 10
23.3734
 20
-7.53648
 11
23.4427
 21
-7.36134
  0
LINE
  8
0
 10
23.4427
 20
-7.36134
 11
23.5335
 21
-7.19627
  0
LINE
  8
0
 10
23.5335
 20
-7.19627
 11
23.6442
 21
-7.04387
  0
LINE
  8
0
 10
23.6442
 20
-7.04387
 11
23.7732
 21
-6.90656
  0
LINE
  8
0
 10
23.7732
 20
-6.90656
 11
23.9183
 21
-6.78648
  0
LINE
  8
0
 10
23.9183
 20
-6.78648
 11
24.0774
 21
-6.68555
  0
LINE
  8
0
 10
24.0774
 20
-6.68555
 11
24.2478
 21
-6.60535
  0
LINE
  8
0
 10
24.2478
 20
-6.60535
 11
24.427
 21
-6.54713
  0
LINE
  8
0
 10
24.427
 20
-6.54713
 11
24.612
 21
-6.51184
  0
LINE
  8
0
 10
24.612
 20
-6.51184
 11
24.8
 21
-6.5
  0
LINE
  8
0
 10
24.8
 20
-6.5
 11
24.988
 21
-6.51184
  0
LINE
  8
0
 10
24.988
 20
-6.51184
 11
25.173
 21
-6.54713
  0
LINE
  8
0
 10
25.173
 20
-6.54713
 11
25.3522
 21
-6.60535
  0
LINE
  8
0
 10
25.3522
 20
-6.60535
 11
25.5226
 21
-6.68555
  0
LINE
  8
0
 10
25.5226
 20
-6.68555
 11
25.6817
 21
-6.78648
  0
LINE
  8
0
 10
25.6817
 20
-6.78648
 11
25.8268
 21
-6.90656
  0
LINE
  8
0
 10
25.8268
 20
-6.90656
 11
25.9558
 21
-7.04387
  0
LINE
  8
0
 10
25.9558
 20
-7.04387
 11
26.0665
 21
-7.19627
  0
LINE
  8
0
 10
26.0665
 20
-7.19627
 11
26.1572
 21
-7.36134
  0
LINE
  8
0
 10
26.1572
 20
-7.36134
 11
26.2266
 21
-7.53648
  0
LINE
  8
0
 10
26.2266
 20
-7.53648
 11
26.2734
 21
-7.71893
  0
LINE
  8
0
 10
26.2734
 20
-7.71893
 11
26.297
 21
-7.90582
  0
LINE
  8
0
 10
26.297
 20
-7.90582
 11
26.297
 21
-8.09419
  0
LINE
  8
0
 10
26.297
 20
-8.09419
 11
26.2734
 21
-8.28108
  0
LINE
  8
0
 10
26.2734
 20
-8.28108
 11
26.2266
 21
-8.46353
  0
LINE
  8
0
 10
26.2266
 20
-8.46353
 11
26.1572
 21
-8.63867
  0
LINE
  8
0
 10
26.1572
 20
-8.63867
 11
26.0665
 21
-8.80374
  0
LINE
  8
0
 10
26.0665
 20
-8.80374
 11
25.9558
 21
-8.95615
  0
LINE
  8
0
 10
25.9558
 20
-8.95615
 11
25.8268
 21
-9.09346
  0
LINE
  8
0
 10
25.8268
 20
-9.09346
 11
25.6817
 21
-9.21353
  0
LINE
  8
0
 10
25.6817
 20
-9.21353
 11
25.5226
 21
-9.31447
  0
LINE
  8
0
 10
25.5226
 20
-9.31447
 11
25.3522
 21
-9.39467
  0
LINE
  8
0
 10
25.3522
 20
-9.39467
 11
25.173
 21
-9.45288
  0
LINE
  8
0
 10
25.173
 20
-9.45288
 11
24.988
 21
-9.48817
  0
LINE
  8
0
 10
24.988
 20
-9.48817
 11
24.8
 21
-9.5
  0
LINE
  8
0
 10
24.8
 20
-9.5
 11
24.612
 21
-9.48817
  0
LINE
  8
0
 10
28.8744
 20
-46.996
 11
28.6252
 21
-46.9646
  0
LINE
  8
0
 10
28.6252
 20
-46.9646
 11
28.382
 21
-46.9021
  0
LINE
  8
0
 10
28.382
 20
-46.9021
 11
28.1484
 21
-46.8096
  0
LINE
  8
0
 10
28.1484
 20
-46.8096
 11
27.9283
 21
-46.6886
  0
LINE
  8
0
 10
27.9283
 20
-46.6886
 11
27.7251
 21
-46.541
  0
LINE
  8
0
 10
27.7251
 20
-46.541
 11
27.5421
 21
-46.3691
  0
LINE
  8
0
 10
27.5421
 20
-46.3691
 11
27.382
 21
-46.1756
  0
LINE
  8
0
 10
27.382
 20
-46.1756
 11
27.2474
 21
-45.9635
  0
LINE
  8
0
 10
27.2474
 20
-45.9635
 11
27.1404
 21
-45.7362
  0
LINE
  8
0
 10
27.1404
 20
-45.7362
 11
27.0628
 21
-45.4974
  0
LINE
  8
0
 10
27.0628
 20
-45.4974
 11
27.0158
 21
-45.2507
  0
LINE
  8
0
 10
27.0158
 20
-45.2507
 11
27
 21
-45
  0
LINE
  8
0
 10
27
 20
-45
 11
27.0158
 21
-44.7493
  0
LINE
  8
0
 10
27.0158
 20
-44.7493
 11
27.0628
 21
-44.5026
  0
LINE
  8
0
 10
27.0628
 20
-44.5026
 11
27.1404
 21
-44.2637
  0
LINE
  8
0
 10
27.1404
 20
-44.2637
 11
27.2474
 21
-44.0365
  0
LINE
  8
0
 10
27.2474
 20
-44.0365
 11
27.382
 21
-43.8244
  0
LINE
  8
0
 10
27.382
 20
-43.8244
 11
27.5421
 21
-43.6309
  0
LINE
  8
0
 10
27.5421
 20
-43.6309
 11
27.7251
 21
-43.459
  0
LINE
  8
0
 10
27.7251
 20
-43.459
 11
27.9283
 21
-43.3113
  0
LINE
  8
0
 10
27.9283
 20
-43.3113
 11
28.1484
 21
-43.1903
  0
LINE
  8
0
 10
28.1484
 20
-43.1903
 11
28.382
 21
-43.0979
  0
LINE
  8
0
 10
28.382
 20
-43.0979
 11
28.6252
 21
-43.0354
  0
LINE
  8
0
 10
28.6252
 20
-43.0354
 11
28.8744
 21
-43.0039
  0
LINE
  8
0
 10
28.8744
 20
-43.0039
 11
29.1256
 21
-43.0039
  0
LINE
  8
0
 10
29.1256
 20
-43.0039
 11
29.3748
 21
-43.0354
  0
LINE
  8
0
 10
29.3748
 20
-43.0354
 11
29.618
 21
-43.0979
  0
LINE
  8
0
 10
29.618
 20
-43.0979
 11
29.8515
 21
-43.1903
  0
LINE
  8
0
 10
29.8515
 20
-43.1903
 11
30.0716
 21
-43.3113
  0
LINE
  8
0
 10
30.0716
 20
-43.3113
 11
30.2748
 21
-43.459
  0
LINE
  8
0
 10
30.2748
 20
-43.459
 11
30.4579
 21
-43.6309
  0
LINE
  8
0
 10
30.4579
 20
-43.6309
 11
30.618
 21
-43.8244
  0
LINE
  8
0
 10
30.618
 20
-43.8244
 11
30.7526
 21
-44.0365
  0
LINE
  8
0
 10
30.7526
 20
-44.0365
 11
30.8595
 21
-44.2637
  0
LINE
  8
0
 10
30.8595
 20
-44.2637
 11
30.9372
 21
-44.5026
  0
LINE
  8
0
 10
30.9372
 20
-44.5026
 11
30.9842
 21
-44.7493
  0
LINE
  8
0
 10
30.9842
 20
-44.7493
 11
31
 21
-45
  0
LINE
  8
0
 10
31
 20
-45
 11
30.9842
 21
-45.2507
  0
LINE
  8
0
 10
30.9842
 20
-45.2507
 11
30.9372
 21
-45.4974
  0
LINE
  8
0
 10
30.9372
 20
-45.4974
 11
30.8595
 21
-45.7362
  0
LINE
  8
0
 10
30.8595
 20
-45.7362
 11
30.7526
 21
-45.9635
  0
LINE
  8
0
 10
30.7526
 20
-45.9635
 11
30.618
 21
-46.1756
  0
LINE
  8
0
 10
30.618
 20
-46.1756
 11
30.4579
 21
-46.3691
  0
LINE
  8
0
 10
30.4579
 20
-46.3691
 11
30.2748
 21
-46.541
  0
LINE
  8
0
 10
30.2748
 20
-46.541
 11
30.0716
 21
-46.6886
  0
LINE
  8
0
 10
30.0716
 20
-46.6886
 11
29.8515
 21
-46.8096
  0
LINE
  8
0
 10
29.8515
 20
-46.8096
 11
29.618
 21
-46.9021
  0
LINE
  8
0
 10
29.618
 20
-46.9021
 11
29.3748
 21
-46.9646
  0
LINE
  8
0
 10
29.3748
 20
-46.9646
 11
29.1256
 21
-46.996
  0
LINE
  8
0
 10
29.1256
 20
-46.996
 11
28.8744
 21
-46.996
  0
LINE
  8
0
 10
-29.1256
 20
-46.996
 11
-29.3748
 21
-46.9646
  0
LINE
  8
0
 10
-29.3748
 20
-46.9646
 11
-29.618
 21
-46.9021
  0
LINE
  8
0
 10
-29.618
 20
-46.9021
 11
-29.8515
 21
-46.8096
  0
LINE
  8
0
 10
-29.8515
 20
-46.8096
 11
-30.0716
 21
-46.6886
  0
LINE
  8
0
 10
-30.0716
 20
-46.6886
 11
-30.2748
 21
-46.541
  0
LINE
  8
0
 10
-30.2748
 20
-46.541
 11
-30.4579
 21
-46.3691
  0
LINE
  8
0
 10
-30.4579
 20
-46.3691
 11
-30.618
 21
-46.1756
  0
LINE
  8
0
 10
-30.618
 20
-46.1756
 11
-30.7526
 21
-45.9635
  0
LINE
  8
0
 10
-30.7526
 20
-45.9635
 11
-30.8595
 21
-45.7362
  0
LINE
  8
0
 10
-30.8595
 20
-45.7362
 11
-30.9372
 21
-45.4974
  0
LINE
  8
0
 10
-30.9372
 20
-45.4974
 11
-30.9842
 21
-45.2507
  0
LINE
  8
0
 10
-30.9842
 20
-45.2507
 11
-31
 21
-45
  0
LINE
  8
0
 10
-31
 20
-45
 11
-30.9842
 21
-44.7493
  0
LINE
  8
0
 10
-30.9842
 20
-44.7493
 11
-30.9372
 21
-44.5026
  0
LINE
  8
0
 10
-30.9372
 20
-44.5026
 11
-30.8595
 21
-44.2637
  0
LINE
  8
0
 10
-30.8595
 20
-44.2637
 11
-30.7526
 21
-44.0365
  0
LINE
  8
0
 10
-30.7526
 20
-44.0365
 11
-30.618
 21
-43.8244
  0
LINE
  8
0
 10
-30.618
 20
-43.8244
 11
-30.4579
 21
-43.6309
  0
LINE
  8
0
 10
-30.4579
 20
-43.6309
 11
-30.2748
 21
-43.459
  0
LINE
  8
0
 10
-30.2748
 20
-43.459
 11
-30.0716
 21
-43.3113
  0
LINE
  8
0
 10
-30.0716
 20
-43.3113
 11
-29.8515
 21
-43.1903
  0
LINE
  8
0
 10
-29.8515
 20
-43.1903
 11
-29.618
 21
-43.0979
  0
LINE
  8
0
 10
-29.618
 20
-43.0979
 11
-29.3748
 21
-43.0354
  0
LINE
  8
0
 10
-29.3748
 20
-43.0354
 11
-29.1256
 21
-43.0039
  0
LINE
  8
0
 10
-29.1256
 20
-43.0039
 11
-28.8744
 21
-43.0039
  0
LINE
  8
0
 10
-28.8744
 20
-43.0039
 11
-28.6252
 21
-43.0354
  0
LINE
  8
0
 10
-28.6252
 20
-43.0354
 11
-28.382
 21
-43.0979
  0
LINE
  8
0
 10
-28.382
 20
-43.0979
 11
-28.1484
 21
-43.1903
  0
LINE
  8
0
 10
-28.1484
 20
-43.1903
 11
-27.9283
 21
-43.3113
  0
LINE
  8
0
 10
-27.9283
 20
-43.3113
 11
-27.7251
 21
-43.459
  0
LINE
  8
0
 10
-27.7251
 20
-43.459
 11
-27.5421
 21
-43.6309
  0
LINE
  8
0
 10
-27.5421
 20
-43.6309
 11
-27.382
 21
-43.8244
  0
LINE
  8
0
 10
-27.382
 20
-43.8244
 11
-27.2474
 21
-44.0365
  0
LINE
  8
0
 10
-27.2474
 20
-44.0365
 11
-27.1404
 21
-44.2637
  0
LINE
  8
0
 10
-27.1404
 20
-44.2637
 11
-27.0628
 21
-44.5026
  0
LINE
  8
0
 10
-27.0628
 20
-44.5026
 11
-27.0158
 21
-44.7493
  0
LINE
  8
0
 10
-27.0158
 20
-44.7493
 11
-27
 21
-45
  0
LINE
  8
0
 10
-27
 20
-45
 11
-27.0158
 21
-45.2507
  0
LINE
  8
0
 10
-27.0158
 20
-45.2507
 11
-27.0628
 21
-45.4974
  0
LINE
  8
0
 10
-27.0628
 20
-45.4974
 11
-27.1404
 21
-45.7362
  0
LINE
  8
0
 10
-27.1404
 20
-45.7362
 11
-27.2474
 21
-45.9635
  0
LINE
  8
0
 10
-27.2474
 20
-45.9635
 11
-27.382
 21
-46.1756
  0
LINE
  8
0
 10
-27.382
 20
-46.1756
 11
-27.5421
 21
-46.3691
  0
LINE
  8
0
 10
-27.5421
 20
-46.3691
 11
-27.7251
 21
-46.541
  0
LINE
  8
0
 10
-27.7251
 20
-46.541
 11
-27.9283
 21
-46.6886
  0
LINE
  8
0
 10
-27.9283
 20
-46.6886
 11
-28.1484
 21
-46.8096
  0
LINE
  8
0
 10
-28.1484
 20
-46.8096
 11
-28.382
 21
-46.9021
  0
LINE
  8
0
 10
-28.382
 20
-46.9021
 11
-28.6252
 21
-46.9646
  0
LINE
  8
0
 10
-28.6252
 20
-46.9646
 11
-28.8744
 21
-46.996
  0
LINE
  8
0
 10
-28.8744
 20
-46.996
 11
-29.1256
 21
-46.996
  0
ENDSEC
  0
SECTION
  2
OBJECTS
  0
DICTIONARY
  0
ENDSEC
  0
EOF
