  0
SECTION
  2
BLOCKS
  0
ENDSEC
  0
SECTION
  2
ENTITIES
  0
LINE
  8
0
 10
5.74951
 20
-3.92914
 11
6.23605
 21
-3.80421
  0
LINE
  8
0
 10
6.23605
 20
-3.80421
 11
6.70311
 21
-3.61929
  0
LINE
  8
0
 10
6.70311
 20
-3.61929
 11
7.1433
 21
-3.3773
  0
LINE
  8
0
 10
7.1433
 20
-3.3773
 11
7.54968
 21
-3.08205
  0
LINE
  8
0
 10
7.54968
 20
-3.08205
 11
7.91586
 21
-2.73817
  0
LINE
  8
0
 10
7.91586
 20
-2.73817
 11
8.23605
 21
-2.35114
  0
LINE
  8
0
 10
8.23605
 20
-2.35114
 11
8.50522
 21
-1.927
  0
LINE
  8
0
 10
8.50522
 20
-1.927
 11
8.7191
 21
-1.47249
  0
LINE
  8
0
 10
8.7191
 20
-1.47249
 11
8.87433
 21
-0.994751
  0
LINE
  8
0
 10
8.87433
 20
-0.994751
 11
8.96844
 21
-0.501328
  0
LINE
  8
0
 10
8.96844
 20
-0.501328
 11
9
 21
0
  0
LINE
  8
0
 10
9
 20
0
 11
8.96844
 21
0.501328
  0
LINE
  8
0
 10
8.96844
 20
0.501328
 11
8.87433
 21
0.994751
  0
LINE
  8
0
 10
8.87433
 20
0.994751
 11
8.7191
 21
1.47249
  0
LINE
  8
0
 10
8.7191
 20
1.47249
 11
8.50522
 21
1.927
  0
LINE
  8
0
 10
8.50522
 20
1.927
 11
8.23605
 21
2.35114
  0
LINE
  8
0
 10
8.23605
 20
2.35114
 11
7.91586
 21
2.73817
  0
LINE
  8
0
 10
7.91586
 20
2.73817
 11
7.54968
 21
3.08205
  0
LINE
  8
0
 10
7.54968
 20
3.08205
 11
7.1433
 21
3.3773
  0
LINE
  8
0
 10
7.1433
 20
3.3773
 11
6.70311
 21
3.61929
  0
LINE
  8
0
 10
6.70311
 20
3.61929
 11
6.23605
 21
3.80421
  0
LINE
  8
0
 10
6.23605
 20
3.80421
 11
5.74951
 21
3.92914
  0
LINE
  8
0
 10
5.74951
 20
3.92914
 11
5.25116
 21
3.9921
  0
LINE
  8
0
 10
5.25116
 20
3.9921
 11
4
 21
3.9921
  0
LINE
  8
0
 10
4
 20
3.9921
 11
4
 21
52.1
  0
LINE
  8
0
 10
4
 20
52.1
 11
3.96844
 21
52.6013
  0
LINE
  8
0
 10
3.96844
 20
52.6013
 11
3.87433
 21
53.0948
  0
LINE
  8
0
 10
3.87433
 20
53.0948
 11
3.7191
 21
53.5725
  0
LINE
  8
0
 10
3.7191
 20
53.5725
 11
3.50522
 21
54.027
  0
LINE
  8
0
 10
3.50522
 20
54.027
 11
3.23605
 21
54.4511
  0
LINE
  8
0
 10
3.23605
 20
54.4511
 11
2.91586
 21
54.8382
  0
LINE
  8
0
 10
2.91586
 20
54.8382
 11
2.54968
 21
55.1821
  0
LINE
  8
0
 10
2.54968
 20
55.1821
 11
2.1433
 21
55.4773
  0
LINE
  8
0
 10
2.1433
 20
55.4773
 11
1.70311
 21
55.7193
  0
LINE
  8
0
 10
1.70311
 20
55.7193
 11
1.23605
 21
55.9042
  0
LINE
  8
0
 10
1.23605
 20
55.9042
 11
0.749512
 21
56.0291
  0
LINE
  8
0
 10
0.749512
 20
56.0291
 11
0.25116
 21
56.0921
  0
LINE
  8
0
 10
0.25116
 20
56.0921
 11
-0.25116
 21
56.0921
  0
LINE
  8
0
 10
-0.25116
 20
56.0921
 11
-0.749512
 21
56.0291
  0
LINE
  8
0
 10
-0.749512
 20
56.0291
 11
-1.23605
 21
55.9042
  0
LINE
  8
0
 10
-1.23605
 20
55.9042
 11
-1.70311
 21
55.7193
  0
LINE
  8
0
 10
-1.70311
 20
55.7193
 11
-2.1433
 21
55.4773
  0
LINE
  8
0
 10
-2.1433
 20
55.4773
 11
-2.54968
 21
55.1821
  0
LINE
  8
0
 10
-2.54968
 20
55.1821
 11
-2.91586
 21
54.8382
  0
LINE
  8
0
 10
-2.91586
 20
54.8382
 11
-3.23605
 21
54.4511
  0
LINE
  8
0
 10
-3.23605
 20
54.4511
 11
-3.50522
 21
54.027
  0
LINE
  8
0
 10
-3.50522
 20
54.027
 11
-3.7191
 21
53.5725
  0
LINE
  8
0
 10
-3.7191
 20
53.5725
 11
-3.87433
 21
53.0948
  0
LINE
  8
0
 10
-3.87433
 20
53.0948
 11
-3.96844
 21
52.6013
  0
LINE
  8
0
 10
-3.96844
 20
52.6013
 11
-4
 21
52.1
  0
LINE
  8
0
 10
-4
 20
52.1
 11
-4
 21
0
  0
LINE
  8
0
 10
-4
 20
0
 11
-3.96844
 21
-0.501328
  0
LINE
  8
0
 10
-3.96844
 20
-0.501328
 11
-3.87433
 21
-0.994751
  0
LINE
  8
0
 10
-3.87433
 20
-0.994751
 11
-3.7191
 21
-1.47249
  0
LINE
  8
0
 10
-3.7191
 20
-1.47249
 11
-3.50522
 21
-1.927
  0
LINE
  8
0
 10
-3.50522
 20
-1.927
 11
-3.23605
 21
-2.35114
  0
LINE
  8
0
 10
-3.23605
 20
-2.35114
 11
-2.91586
 21
-2.73817
  0
LINE
  8
0
 10
-2.91586
 20
-2.73817
 11
-2.54968
 21
-3.08205
  0
LINE
  8
0
 10
-2.54968
 20
-3.08205
 11
-2.1433
 21
-3.3773
  0
LINE
  8
0
 10
-2.1433
 20
-3.3773
 11
-1.70311
 21
-3.61929
  0
LINE
  8
0
 10
-1.70311
 20
-3.61929
 11
-1.23605
 21
-3.80421
  0
LINE
  8
0
 10
-1.23605
 20
-3.80421
 11
-0.749512
 21
-3.92914
  0
LINE
  8
0
 10
-0.749512
 20
-3.92914
 11
-0.25116
 21
-3.9921
  0
LINE
  8
0
 10
-0.25116
 20
-3.9921
 11
5.25116
 21
-3.9921
  0
LINE
  8
0
 10
5.25116
 20
-3.9921
 11
5.74951
 21
-3.92914
  0
LINE
  8
0
 10
-0.0941772
 20
50.603
 11
-0.281067
 21
50.6266
  0
LINE
  8
0
 10
-0.281067
 20
50.6266
 11
-0.463516
 21
50.6734
  0
LINE
  8
0
 10
-0.463516
 20
50.6734
 11
-0.638657
 21
50.7428
  0
LINE
  8
0
 10
-0.638657
 20
50.7428
 11
-0.803726
 21
50.8335
  0
LINE
  8
0
 10
-0.803726
 20
50.8335
 11
-0.956131
 21
50.9442
  0
LINE
  8
0
 10
-0.956131
 20
50.9442
 11
-1.09344
 21
51.0732
  0
LINE
  8
0
 10
-1.09344
 20
51.0732
 11
-1.21352
 21
51.2183
  0
LINE
  8
0
 10
-1.21352
 20
51.2183
 11
-1.31445
 21
51.3774
  0
LINE
  8
0
 10
-1.31445
 20
51.3774
 11
-1.39465
 21
51.5478
  0
LINE
  8
0
 10
-1.39465
 20
51.5478
 11
-1.45287
 21
51.727
  0
LINE
  8
0
 10
-1.45287
 20
51.727
 11
-1.48816
 21
51.912
  0
LINE
  8
0
 10
-1.48816
 20
51.912
 11
-1.5
 21
52.1
  0
LINE
  8
0
 10
-1.5
 20
52.1
 11
-1.48816
 21
52.288
  0
LINE
  8
0
 10
-1.48816
 20
52.288
 11
-1.45287
 21
52.473
  0
LINE
  8
0
 10
-1.45287
 20
52.473
 11
-1.39465
 21
52.6522
  0
LINE
  8
0
 10
-1.39465
 20
52.6522
 11
-1.31445
 21
52.8226
  0
LINE
  8
0
 10
-1.31445
 20
52.8226
 11
-1.21352
 21
52.9817
  0
LINE
  8
0
 10
-1.21352
 20
52.9817
 11
-1.09344
 21
53.1268
  0
LINE
  8
0
 10
-1.09344
 20
53.1268
 11
-0.956131
 21
53.2558
  0
LINE
  8
0
 10
-0.956131
 20
53.2558
 11
-0.803726
 21
53.3665
  0
LINE
  8
0
 10
-0.803726
 20
53.3665
 11
-0.638657
 21
53.4572
  0
LINE
  8
0
 10
-0.638657
 20
53.4572
 11
-0.463516
 21
53.5266
  0
LINE
  8
0
 10
-0.463516
 20
53.5266
 11
-0.281067
 21
53.5734
  0
LINE
  8
0
 10
-0.281067
 20
53.5734
 11
-0.0941772
 21
53.597
  0
LINE
  8
0
 10
-0.0941772
 20
53.597
 11
0.0941772
 21
53.597
  0
LINE
  8
0
 10
0.0941772
 20
53.597
 11
0.281067
 21
53.5734
  0
LINE
  8
0
 10
0.281067
 20
53.5734
 11
0.463516
 21
53.5266
  0
LINE
  8
0
 10
0.463516
 20
53.5266
 11
0.638657
 21
53.4572
  0
LINE
  8
0
 10
0.638657
 20
53.4572
 11
0.803726
 21
53.3665
  0
LINE
  8
0
 10
0.803726
 20
53.3665
 11
0.956131
 21
53.2558
  0
LINE
  8
0
 10
0.956131
 20
53.2558
 11
1.09344
 21
53.1268
  0
LINE
  8
0
 10
1.09344
 20
53.1268
 11
1.21352
 21
52.9817
  0
LINE
  8
0
 10
1.21352
 20
52.9817
 11
1.31445
 21
52.8226
  0
LINE
  8
0
 10
1.31445
 20
52.8226
 11
1.39465
 21
52.6522
  0
LINE
  8
0
 10
1.39465
 20
52.6522
 11
1.45287
 21
52.473
  0
LINE
  8
0
 10
1.45287
 20
52.473
 11
1.48816
 21
52.288
  0
LINE
  8
0
 10
1.48816
 20
52.288
 11
1.5
 21
52.1
  0
LINE
  8
0
 10
1.5
 20
52.1
 11
1.48816
 21
51.912
  0
LINE
  8
0
 10
1.48816
 20
51.912
 11
1.45287
 21
51.727
  0
LINE
  8
0
 10
1.45287
 20
51.727
 11
1.39465
 21
51.5478
  0
LINE
  8
0
 10
1.39465
 20
51.5478
 11
1.31445
 21
51.3774
  0
LINE
  8
0
 10
1.31445
 20
51.3774
 11
1.21352
 21
51.2183
  0
LINE
  8
0
 10
1.21352
 20
51.2183
 11
1.09344
 21
51.0732
  0
LINE
  8
0
 10
1.09344
 20
51.0732
 11
0.956131
 21
50.9442
  0
LINE
  8
0
 10
0.956131
 20
50.9442
 11
0.803726
 21
50.8335
  0
LINE
  8
0
 10
0.803726
 20
50.8335
 11
0.638657
 21
50.7428
  0
LINE
  8
0
 10
0.638657
 20
50.7428
 11
0.463516
 21
50.6734
  0
LINE
  8
0
 10
0.463516
 20
50.6734
 11
0.281067
 21
50.6266
  0
LINE
  8
0
 10
0.281067
 20
50.6266
 11
0.0941772
 21
50.603
  0
LINE
  8
0
 10
0.0941772
 20
50.603
 11
-0.0941772
 21
50.603
  0
LINE
  8
0
 10
-1.53139
 20
46.251
 11
-1.59369
 21
46.2589
  0
LINE
  8
0
 10
-1.59369
 20
46.2589
 11
-1.6545
 21
46.2745
  0
LINE
  8
0
 10
-1.6545
 20
46.2745
 11
-1.71288
 21
46.2976
  0
LINE
  8
0
 10
-1.71288
 20
46.2976
 11
-1.7679
 21
46.3278
  0
LINE
  8
0
 10
-1.7679
 20
46.3278
 11
-1.81871
 21
46.3647
  0
LINE
  8
0
 10
-1.81871
 20
46.3647
 11
-1.86447
 21
46.4077
  0
LINE
  8
0
 10
-1.86447
 20
46.4077
 11
-1.9045
 21
46.4561
  0
LINE
  8
0
 10
-1.9045
 20
46.4561
 11
-1.93814
 21
46.5091
  0
LINE
  8
0
 10
-1.93814
 20
46.5091
 11
-1.96487
 21
46.5659
  0
LINE
  8
0
 10
-1.96487
 20
46.5659
 11
-1.98428
 21
46.6256
  0
LINE
  8
0
 10
-1.98428
 20
46.6256
 11
-1.99605
 21
46.6873
  0
LINE
  8
0
 10
-1.99605
 20
46.6873
 11
-2
 21
46.75
  0
LINE
  8
0
 10
-2
 20
46.75
 11
-2
 21
47.25
  0
LINE
  8
0
 10
-2
 20
47.25
 11
-1.99605
 21
47.3127
  0
LINE
  8
0
 10
-1.99605
 20
47.3127
 11
-1.98428
 21
47.3743
  0
LINE
  8
0
 10
-1.98428
 20
47.3743
 11
-1.96487
 21
47.4341
  0
LINE
  8
0
 10
-1.96487
 20
47.4341
 11
-1.93814
 21
47.4909
  0
LINE
  8
0
 10
-1.93814
 20
47.4909
 11
-1.9045
 21
47.5439
  0
LINE
  8
0
 10
-1.9045
 20
47.5439
 11
-1.86447
 21
47.5923
  0
LINE
  8
0
 10
-1.86447
 20
47.5923
 11
-1.81871
 21
47.6353
  0
LINE
  8
0
 10
-1.81871
 20
47.6353
 11
-1.7679
 21
47.6721
  0
LINE
  8
0
 10
-1.7679
 20
47.6721
 11
-1.71288
 21
47.7024
  0
LINE
  8
0
 10
-1.71288
 20
47.7024
 11
-1.6545
 21
47.7255
  0
LINE
  8
0
 10
-1.6545
 20
47.7255
 11
-1.59369
 21
47.7411
  0
LINE
  8
0
 10
-1.59369
 20
47.7411
 11
-1.53139
 21
47.749
  0
LINE
  8
0
 10
-1.53139
 20
47.749
 11
1.53139
 21
47.749
  0
LINE
  8
0
 10
1.53139
 20
47.749
 11
1.59369
 21
47.7411
  0
LINE
  8
0
 10
1.59369
 20
47.7411
 11
1.6545
 21
47.7255
  0
LINE
  8
0
 10
1.6545
 20
47.7255
 11
1.71288
 21
47.7024
  0
LINE
  8
0
 10
1.71288
 20
47.7024
 11
1.7679
 21
47.6721
  0
LINE
  8
0
 10
1.7679
 20
47.6721
 11
1.81871
 21
47.6353
  0
LINE
  8
0
 10
1.81871
 20
47.6353
 11
1.86447
 21
47.5923
  0
LINE
  8
0
 10
1.86447
 20
47.5923
 11
1.9045
 21
47.5439
  0
LINE
  8
0
 10
1.9045
 20
47.5439
 11
1.93814
 21
47.4909
  0
LINE
  8
0
 10
1.93814
 20
47.4909
 11
1.96487
 21
47.4341
  0
LINE
  8
0
 10
1.96487
 20
47.4341
 11
1.98428
 21
47.3743
  0
LINE
  8
0
 10
1.98428
 20
47.3743
 11
1.99605
 21
47.3127
  0
LINE
  8
0
 10
1.99605
 20
47.3127
 11
2
 21
47.25
  0
LINE
  8
0
 10
2
 20
47.25
 11
2
 21
46.75
  0
LINE
  8
0
 10
2
 20
46.75
 11
1.99605
 21
46.6873
  0
LINE
  8
0
 10
1.99605
 20
46.6873
 11
1.98428
 21
46.6256
  0
LINE
  8
0
 10
1.98428
 20
46.6256
 11
1.96487
 21
46.5659
  0
LINE
  8
0
 10
1.96487
 20
46.5659
 11
1.93814
 21
46.5091
  0
LINE
  8
0
 10
1.93814
 20
46.5091
 11
1.9045
 21
46.4561
  0
LINE
  8
0
 10
1.9045
 20
46.4561
 11
1.86447
 21
46.4077
  0
LINE
  8
0
 10
1.86447
 20
46.4077
 11
1.81871
 21
46.3647
  0
LINE
  8
0
 10
1.81871
 20
46.3647
 11
1.7679
 21
46.3278
  0
LINE
  8
0
 10
1.7679
 20
46.3278
 11
1.71288
 21
46.2976
  0
LINE
  8
0
 10
1.71288
 20
46.2976
 11
1.6545
 21
46.2745
  0
LINE
  8
0
 10
1.6545
 20
46.2745
 11
1.59369
 21
46.2589
  0
LINE
  8
0
 10
1.59369
 20
46.2589
 11
1.53139
 21
46.251
  0
LINE
  8
0
 10
1.53139
 20
46.251
 11
-1.53139
 21
46.251
  0
LINE
  8
0
 10
-1.53139
 20
23.751
 11
-1.59369
 21
23.7589
  0
LINE
  8
0
 10
-1.59369
 20
23.7589
 11
-1.6545
 21
23.7745
  0
LINE
  8
0
 10
-1.6545
 20
23.7745
 11
-1.71288
 21
23.7976
  0
LINE
  8
0
 10
-1.71288
 20
23.7976
 11
-1.7679
 21
23.8278
  0
LINE
  8
0
 10
-1.7679
 20
23.8278
 11
-1.81871
 21
23.8647
  0
LINE
  8
0
 10
-1.81871
 20
23.8647
 11
-1.86447
 21
23.9077
  0
LINE
  8
0
 10
-1.86447
 20
23.9077
 11
-1.9045
 21
23.9561
  0
LINE
  8
0
 10
-1.9045
 20
23.9561
 11
-1.93814
 21
24.0091
  0
LINE
  8
0
 10
-1.93814
 20
24.0091
 11
-1.96487
 21
24.0659
  0
LINE
  8
0
 10
-1.96487
 20
24.0659
 11
-1.98428
 21
24.1256
  0
LINE
  8
0
 10
-1.98428
 20
24.1256
 11
-1.99605
 21
24.1873
  0
LINE
  8
0
 10
-1.99605
 20
24.1873
 11
-2
 21
24.25
  0
LINE
  8
0
 10
-2
 20
24.25
 11
-2
 21
25.75
  0
LINE
  8
0
 10
-2
 20
25.75
 11
-1.99605
 21
25.8127
  0
LINE
  8
0
 10
-1.99605
 20
25.8127
 11
-1.98428
 21
25.8743
  0
LINE
  8
0
 10
-1.98428
 20
25.8743
 11
-1.96487
 21
25.9341
  0
LINE
  8
0
 10
-1.96487
 20
25.9341
 11
-1.93814
 21
25.9909
  0
LINE
  8
0
 10
-1.93814
 20
25.9909
 11
-1.9045
 21
26.0439
  0
LINE
  8
0
 10
-1.9045
 20
26.0439
 11
-1.86447
 21
26.0923
  0
LINE
  8
0
 10
-1.86447
 20
26.0923
 11
-1.81871
 21
26.1353
  0
LINE
  8
0
 10
-1.81871
 20
26.1353
 11
-1.7679
 21
26.1721
  0
LINE
  8
0
 10
-1.7679
 20
26.1721
 11
-1.71288
 21
26.2024
  0
LINE
  8
0
 10
-1.71288
 20
26.2024
 11
-1.6545
 21
26.2255
  0
LINE
  8
0
 10
-1.6545
 20
26.2255
 11
-1.59369
 21
26.2411
  0
LINE
  8
0
 10
-1.59369
 20
26.2411
 11
-1.53139
 21
26.249
  0
LINE
  8
0
 10
-1.53139
 20
26.249
 11
1.53139
 21
26.249
  0
LINE
  8
0
 10
1.53139
 20
26.249
 11
1.59369
 21
26.2411
  0
LINE
  8
0
 10
1.59369
 20
26.2411
 11
1.6545
 21
26.2255
  0
LINE
  8
0
 10
1.6545
 20
26.2255
 11
1.71288
 21
26.2024
  0
LINE
  8
0
 10
1.71288
 20
26.2024
 11
1.7679
 21
26.1721
  0
LINE
  8
0
 10
1.7679
 20
26.1721
 11
1.81871
 21
26.1353
  0
LINE
  8
0
 10
1.81871
 20
26.1353
 11
1.86447
 21
26.0923
  0
LINE
  8
0
 10
1.86447
 20
26.0923
 11
1.9045
 21
26.0439
  0
LINE
  8
0
 10
1.9045
 20
26.0439
 11
1.93814
 21
25.9909
  0
LINE
  8
0
 10
1.93814
 20
25.9909
 11
1.96487
 21
25.9341
  0
LINE
  8
0
 10
1.96487
 20
25.9341
 11
1.98428
 21
25.8743
  0
LINE
  8
0
 10
1.98428
 20
25.8743
 11
1.99605
 21
25.8127
  0
LINE
  8
0
 10
1.99605
 20
25.8127
 11
2
 21
25.75
  0
LINE
  8
0
 10
2
 20
25.75
 11
2
 21
24.25
  0
LINE
  8
0
 10
2
 20
24.25
 11
1.99605
 21
24.1873
  0
LINE
  8
0
 10
1.99605
 20
24.1873
 11
1.98428
 21
24.1256
  0
LINE
  8
0
 10
1.98428
 20
24.1256
 11
1.96487
 21
24.0659
  0
LINE
  8
0
 10
1.96487
 20
24.0659
 11
1.93814
 21
24.0091
  0
LINE
  8
0
 10
1.93814
 20
24.0091
 11
1.9045
 21
23.9561
  0
LINE
  8
0
 10
1.9045
 20
23.9561
 11
1.86447
 21
23.9077
  0
LINE
  8
0
 10
1.86447
 20
23.9077
 11
1.81871
 21
23.8647
  0
LINE
  8
0
 10
1.81871
 20
23.8647
 11
1.7679
 21
23.8278
  0
LINE
  8
0
 10
1.7679
 20
23.8278
 11
1.71288
 21
23.7976
  0
LINE
  8
0
 10
1.71288
 20
23.7976
 11
1.6545
 21
23.7745
  0
LINE
  8
0
 10
1.6545
 20
23.7745
 11
1.59369
 21
23.7589
  0
LINE
  8
0
 10
1.59369
 20
23.7589
 11
1.53139
 21
23.751
  0
LINE
  8
0
 10
1.53139
 20
23.751
 11
-1.53139
 21
23.751
  0
LINE
  8
0
 10
-1.53139
 20
2.25098
 11
-1.59369
 21
2.25885
  0
LINE
  8
0
 10
-1.59369
 20
2.25885
 11
-1.6545
 21
2.27446
  0
LINE
  8
0
 10
-1.6545
 20
2.27446
 11
-1.71288
 21
2.29758
  0
LINE
  8
0
 10
-1.71288
 20
2.29758
 11
-1.7679
 21
2.32784
  0
LINE
  8
0
 10
-1.7679
 20
2.32784
 11
-1.81871
 21
2.36473
  0
LINE
  8
0
 10
-1.81871
 20
2.36473
 11
-1.86447
 21
2.40771
  0
LINE
  8
0
 10
-1.86447
 20
2.40771
 11
-1.9045
 21
2.4561
  0
LINE
  8
0
 10
-1.9045
 20
2.4561
 11
-1.93814
 21
2.50911
  0
LINE
  8
0
 10
-1.93814
 20
2.50911
 11
-1.96487
 21
2.56593
  0
LINE
  8
0
 10
-1.96487
 20
2.56593
 11
-1.98428
 21
2.62564
  0
LINE
  8
0
 10
-1.98428
 20
2.62564
 11
-1.99605
 21
2.68733
  0
LINE
  8
0
 10
-1.99605
 20
2.68733
 11
-2
 21
2.75
  0
LINE
  8
0
 10
-2
 20
2.75
 11
-2
 21
3.25
  0
LINE
  8
0
 10
-2
 20
3.25
 11
-1.99605
 21
3.31265
  0
LINE
  8
0
 10
-1.99605
 20
3.31265
 11
-1.98428
 21
3.37434
  0
LINE
  8
0
 10
-1.98428
 20
3.37434
 11
-1.96487
 21
3.43405
  0
LINE
  8
0
 10
-1.96487
 20
3.43405
 11
-1.93814
 21
3.49088
  0
LINE
  8
0
 10
-1.93814
 20
3.49088
 11
-1.9045
 21
3.54388
  0
LINE
  8
0
 10
-1.9045
 20
3.54388
 11
-1.86447
 21
3.59227
  0
LINE
  8
0
 10
-1.86447
 20
3.59227
 11
-1.81871
 21
3.63525
  0
LINE
  8
0
 10
-1.81871
 20
3.63525
 11
-1.7679
 21
3.67215
  0
LINE
  8
0
 10
-1.7679
 20
3.67215
 11
-1.71288
 21
3.70241
  0
LINE
  8
0
 10
-1.71288
 20
3.70241
 11
-1.6545
 21
3.72552
  0
LINE
  8
0
 10
-1.6545
 20
3.72552
 11
-1.59369
 21
3.74113
  0
LINE
  8
0
 10
-1.59369
 20
3.74113
 11
-1.53139
 21
3.74901
  0
LINE
  8
0
 10
-1.53139
 20
3.74901
 11
1.53139
 21
3.74901
  0
LINE
  8
0
 10
1.53139
 20
3.74901
 11
1.59369
 21
3.74113
  0
LINE
  8
0
 10
1.59369
 20
3.74113
 11
1.6545
 21
3.72552
  0
LINE
  8
0
 10
1.6545
 20
3.72552
 11
1.71288
 21
3.70241
  0
LINE
  8
0
 10
1.71288
 20
3.70241
 11
1.7679
 21
3.67215
  0
LINE
  8
0
 10
1.7679
 20
3.67215
 11
1.81871
 21
3.63525
  0
LINE
  8
0
 10
1.81871
 20
3.63525
 11
1.86447
 21
3.59227
  0
LINE
  8
0
 10
1.86447
 20
3.59227
 11
1.9045
 21
3.54388
  0
LINE
  8
0
 10
1.9045
 20
3.54388
 11
1.93814
 21
3.49088
  0
LINE
  8
0
 10
1.93814
 20
3.49088
 11
1.96487
 21
3.43405
  0
LINE
  8
0
 10
1.96487
 20
3.43405
 11
1.98428
 21
3.37434
  0
LINE
  8
0
 10
1.98428
 20
3.37434
 11
1.99605
 21
3.31265
  0
LINE
  8
0
 10
1.99605
 20
3.31265
 11
2
 21
3.25
  0
LINE
  8
0
 10
2
 20
3.25
 11
2
 21
2.75
  0
LINE
  8
0
 10
2
 20
2.75
 11
1.99605
 21
2.68733
  0
LINE
  8
0
 10
1.99605
 20
2.68733
 11
1.98428
 21
2.62564
  0
LINE
  8
0
 10
1.98428
 20
2.62564
 11
1.96487
 21
2.56593
  0
LINE
  8
0
 10
1.96487
 20
2.56593
 11
1.93814
 21
2.50911
  0
LINE
  8
0
 10
1.93814
 20
2.50911
 11
1.9045
 21
2.4561
  0
LINE
  8
0
 10
1.9045
 20
2.4561
 11
1.86447
 21
2.40771
  0
LINE
  8
0
 10
1.86447
 20
2.40771
 11
1.81871
 21
2.36473
  0
LINE
  8
0
 10
1.81871
 20
2.36473
 11
1.7679
 21
2.32784
  0
LINE
  8
0
 10
1.7679
 20
2.32784
 11
1.71288
 21
2.29758
  0
LINE
  8
0
 10
1.71288
 20
2.29758
 11
1.6545
 21
2.27446
  0
LINE
  8
0
 10
1.6545
 20
2.27446
 11
1.59369
 21
2.25885
  0
LINE
  8
0
 10
1.59369
 20
2.25885
 11
1.53139
 21
2.25098
  0
LINE
  8
0
 10
1.53139
 20
2.25098
 11
-1.53139
 21
2.25098
  0
LINE
  8
0
 10
4.90581
 20
-1.49704
 11
4.71892
 21
-1.47342
  0
LINE
  8
0
 10
4.71892
 20
-1.47342
 11
4.53647
 21
-1.42657
  0
LINE
  8
0
 10
4.53647
 20
-1.42657
 11
4.36133
 21
-1.35724
  0
LINE
  8
0
 10
4.36133
 20
-1.35724
 11
4.19626
 21
-1.26648
  0
LINE
  8
0
 10
4.19626
 20
-1.26648
 11
4.04385
 21
-1.15576
  0
LINE
  8
0
 10
4.04385
 20
-1.15576
 11
3.90654
 21
-1.02681
  0
LINE
  8
0
 10
3.90654
 20
-1.02681
 11
3.78647
 21
-0.881668
  0
LINE
  8
0
 10
3.78647
 20
-0.881668
 11
3.68553
 21
-0.722626
  0
LINE
  8
0
 10
3.68553
 20
-0.722626
 11
3.60533
 21
-0.552185
  0
LINE
  8
0
 10
3.60533
 20
-0.552185
 11
3.54712
 21
-0.373032
  0
LINE
  8
0
 10
3.54712
 20
-0.373032
 11
3.51183
 21
-0.187988
  0
LINE
  8
0
 10
3.51183
 20
-0.187988
 11
3.5
 21
0
  0
LINE
  8
0
 10
3.5
 20
0
 11
3.51183
 21
0.187988
  0
LINE
  8
0
 10
3.51183
 20
0.187988
 11
3.54712
 21
0.373032
  0
LINE
  8
0
 10
3.54712
 20
0.373032
 11
3.60533
 21
0.552185
  0
LINE
  8
0
 10
3.60533
 20
0.552185
 11
3.68553
 21
0.722626
  0
LINE
  8
0
 10
3.68553
 20
0.722626
 11
3.78647
 21
0.881668
  0
LINE
  8
0
 10
3.78647
 20
0.881668
 11
3.90654
 21
1.02681
  0
LINE
  8
0
 10
3.90654
 20
1.02681
 11
4.04385
 21
1.15576
  0
LINE
  8
0
 10
4.04385
 20
1.15576
 11
4.19626
 21
1.26648
  0
LINE
  8
0
 10
4.19626
 20
1.26648
 11
4.36133
 21
1.35724
  0
LINE
  8
0
 10
4.36133
 20
1.35724
 11
4.53647
 21
1.42657
  0
LINE
  8
0
 10
4.53647
 20
1.42657
 11
4.71892
 21
1.47342
  0
LINE
  8
0
 10
4.71892
 20
1.47342
 11
4.90581
 21
1.49704
  0
LINE
  8
0
 10
4.90581
 20
1.49704
 11
5.09418
 21
1.49704
  0
LINE
  8
0
 10
5.09418
 20
1.49704
 11
5.28107
 21
1.47342
  0
LINE
  8
0
 10
5.28107
 20
1.47342
 11
5.46352
 21
1.42657
  0
LINE
  8
0
 10
5.46352
 20
1.42657
 11
5.63866
 21
1.35724
  0
LINE
  8
0
 10
5.63866
 20
1.35724
 11
5.80373
 21
1.26648
  0
LINE
  8
0
 10
5.80373
 20
1.26648
 11
5.95613
 21
1.15576
  0
LINE
  8
0
 10
5.95613
 20
1.15576
 11
6.09344
 21
1.02681
  0
LINE
  8
0
 10
6.09344
 20
1.02681
 11
6.21352
 21
0.881668
  0
LINE
  8
0
 10
6.21352
 20
0.881668
 11
6.31445
 21
0.722626
  0
LINE
  8
0
 10
6.31445
 20
0.722626
 11
6.39465
 21
0.552185
  0
LINE
  8
0
 10
6.39465
 20
0.552185
 11
6.45287
 21
0.373032
  0
LINE
  8
0
 10
6.45287
 20
0.373032
 11
6.48816
 21
0.187988
  0
LINE
  8
0
 10
6.48816
 20
0.187988
 11
6.5
 21
0
  0
LINE
  8
0
 10
6.5
 20
0
 11
6.48816
 21
-0.187988
  0
LINE
  8
0
 10
6.48816
 20
-0.187988
 11
6.45287
 21
-0.373032
  0
LINE
  8
0
 10
6.45287
 20
-0.373032
 11
6.39465
 21
-0.552185
  0
LINE
  8
0
 10
6.39465
 20
-0.552185
 11
6.31445
 21
-0.722626
  0
LINE
  8
0
 10
6.31445
 20
-0.722626
 11
6.21352
 21
-0.881668
  0
LINE
  8
0
 10
6.21352
 20
-0.881668
 11
6.09344
 21
-1.02681
  0
LINE
  8
0
 10
6.09344
 20
-1.02681
 11
5.95613
 21
-1.15576
  0
LINE
  8
0
 10
5.95613
 20
-1.15576
 11
5.80373
 21
-1.26648
  0
LINE
  8
0
 10
5.80373
 20
-1.26648
 11
5.63866
 21
-1.35724
  0
LINE
  8
0
 10
5.63866
 20
-1.35724
 11
5.46352
 21
-1.42657
  0
LINE
  8
0
 10
5.46352
 20
-1.42657
 11
5.28107
 21
-1.47342
  0
LINE
  8
0
 10
5.28107
 20
-1.47342
 11
5.09418
 21
-1.49704
  0
LINE
  8
0
 10
5.09418
 20
-1.49704
 11
4.90581
 21
-1.49704
  0
ENDSEC
  0
SECTION
  2
OBJECTS
  0
DICTIONARY
  0
ENDSEC
  0
EOF
